<svg id="Ebene_1" data-name="Ebene 1" xmlns="http://www.w3.org/2000/svg" viewBox="0 0 280.98 261.52"><path d="M45.58,66.38c-7-16-.6-31.2,13.2-35.72,2.14-.7,4.33-1.65,6.53-1.74,15.22-.63,29.39-5.44,43.83-9.73,18.49-5.49,39.61,6,48.16,24.86,6.53,14.41,9,29.71,9.46,45.41.27,10,.59,20.07.78,30.11.25,13.16,6.88,21.72,19,26.07s24.93,7.89,37,12.91c14.76,6.16,30,12,43.3,20.63,25.17,16.47,32.55,48.37,18.85,73-14.1,25.36-50,34.38-73.1,18.39-10.88-7.51-11.3-12.94-1.72-22,.87-.83,1.66-1.74,3.4-3.57l-56.54,4.87c3,1.07,4.68,1.82,6.44,2.27,6.32,1.61,13,2.32,18.88,5,4.07,1.83,9.17,5.83,9.91,9.61,1.18,6.1-5.19,8.42-10.28,10a45.54,45.54,0,0,1-12.5,2.48c-13.54.17-27.16.6-40.62-.52-20.56-1.72-28-11.09-27.3-31.63.07-2-1.82-4-3.28-7.05-1.63,2.29-2.09,2.66-2.17,3.1C93.13,264.69,87.92,270.3,66,273.06c-11.39,1.43-23,1.16-34.52,1.34a27.42,27.42,0,0,1-8.81-1.81c-5.24-1.78-12.58-4.21-11-10.12,1.2-4.39,8-8.69,13.06-10.22,7-2.1,15-1,22.36-2.29,10-1.73,14-6.6,15.46-15.84.87-5.58-.55-9.07-5.46-12.52-30.47-21.42-40.35-51.37-27.85-84.14,2.3-6,6.09-11.5,9.66-16.93,6.48-9.85,13.57-19.31,19.93-29.24,6.21-9.69,7.82-19.58-1.13-28.91-.76-.79-1-2.14-1.67-3.85,6.68-1.55,10.49,2,13.64,6A18.92,18.92,0,0,1,71.45,86C63.92,99.48,54.9,112.18,47,125.52c-4.42,7.47-9.22,15.17-11.41,23.41-6,22.52,0,42.2,17.16,58.23,14.79,13.86,32.41,22.38,51.94,28l4.43-9,1.42.34c-.66,3.7-1.56,7.37-1.91,11.09a139.78,139.78,0,0,0-.92,17.21c.19,6.66,3.89,12,10.13,13.65,21,5.71,41.94,3.45,62.82.05.13-.86.25-1.71.38-2.57-4.14-1.06-8.3-2.05-12.41-3.21-6.5-1.83-13.37-2.95-19.35-5.87-11.19-5.47-15.89-18.44-9.93-29,2.21,3.39,4.54,5.85,5.53,8.77,1.52,4.47,3.92,6.44,8.72,6.36,20.81-.32,41.67.26,62.41-1.11,5-.33,9.66-6.85,13.78-10-.71,1.4-1.65,4.79-3.76,7.13-3.85,4.26-8.46,7.84-12.62,11.83-7.31,7-7,10.4,1.33,15.76,16.58,10.63,33.33,8.33,49.12-1,16.2-9.61,22.86-24.87,20.87-43.57-1.94-18.18-11.87-31.66-27.55-39.89-13.25-7-27.54-12-41.57-17.37-10.3-3.94-21-6.86-31.39-10.54-17.52-6.2-25.69-18.74-25.88-37.32-.15-14.28-1-28.6-2.41-42.81a90.19,90.19,0,0,0-5.5-21.81c-7.64-20.69-24.69-28.39-45.95-22.16a286.71,286.71,0,0,1-33.56,7.46c-14.38,2.38-18.19,5.29-22.18,19.51C48,59.57,47.07,62,45.58,66.38ZM23.71,261.5c.07.84.13,1.68.2,2.53,19,3.49,38.05,4.94,56.76-1.9,6.7-2.45,11.93-13.18,10.73-20.07a5.85,5.85,0,0,0-2.89-3.72c-4.9-2.3-10-4.2-15.5-6.45-.59,2.39-1.11,4-1.4,5.69-1.92,11.13-8.66,18.06-19.34,20.61-6.52,1.56-13.38,1.7-20.09,2.45C29.36,261,26.53,261.22,23.71,261.5Z" transform="translate(-11.49 -17.82)"/></svg>